<svg width="30" height="30" viewBox="0 0 30 30" fill="none" xmlns="http://www.w3.org/2000/svg">
<path d="M27.1665 13.2045L15.6653 12V3C15.6653 2.20435 15.3297 1.44129 14.7323 0.87868C14.1349 0.31607 13.3247 0 12.4798 0C11.635 0 10.8247 0.31607 10.2273 0.87868C9.62994 1.44129 9.29433 2.20435 9.29433 3V21L4.46672 19.182C4.06365 19.0302 3.6319 18.9576 3.19796 18.9687C2.76403 18.9797 2.33707 19.0742 1.9433 19.2463C1.54954 19.4184 1.19727 19.6644 0.908125 19.9693C0.618983 20.2743 0.399067 20.6316 0.261879 21.0195L0.0818995 21.5295C-0.0196084 21.8157 -0.0269301 22.124 0.0608942 22.4142C0.148718 22.7044 0.32759 22.9627 0.574057 23.1555L8.85155 29.6535C9.13665 29.877 9.4982 30 9.8709 30H26.8145C27.6594 30 28.4696 29.6839 29.067 29.1213C29.6644 28.5587 30 27.7956 30 27V16.185C29.9997 15.4469 29.7105 14.7349 29.1878 14.185C28.665 13.6351 27.9454 13.2861 27.1665 13.2045Z" fill="#AB9350"/>
</svg>
