<svg width="150" height="150" viewBox="0 0 150 150" fill="none" xmlns="http://www.w3.org/2000/svg">
<path d="M0 32.1429C0 23.618 3.38647 15.4424 9.41443 9.41443C15.4424 3.38647 23.618 0 32.1429 0H117.857C126.382 0 134.558 3.38647 140.586 9.41443C146.614 15.4424 150 23.618 150 32.1429V117.857C150 126.382 146.614 134.558 140.586 140.586C134.558 146.614 126.382 150 117.857 150H32.1429C23.618 150 15.4424 146.614 9.41443 140.586C3.38647 134.558 0 126.382 0 117.857V32.1429ZM32.1429 10.7143C26.4596 10.7143 21.0092 12.9719 16.9906 16.9906C12.9719 21.0092 10.7143 26.4596 10.7143 32.1429V117.857C10.7143 123.54 12.9719 128.991 16.9906 133.009C21.0092 137.028 26.4596 139.286 32.1429 139.286H117.857C123.54 139.286 128.991 137.028 133.009 133.009C137.028 128.991 139.286 123.54 139.286 117.857V32.1429C139.286 26.4596 137.028 21.0092 133.009 16.9906C128.991 12.9719 123.54 10.7143 117.857 10.7143H32.1429Z" fill="#AB9350"/>
<path d="M115 101.25V48.75C115 43.9083 111.849 40 107.945 40H42.0547C38.1511 40 35 43.9083 35 48.75V101.25C35 106.092 38.1511 110 42.0547 110H107.945C111.849 110 115 106.092 115 101.25ZM108.839 48.1083C110.391 50.0333 109.544 52.0167 108.698 53.0083L89.6032 74.7083L107.945 98.3917C108.51 99.2083 108.886 100.492 108.228 101.367C107.616 102.3 106.205 102.242 105.594 101.658L85.0412 79.9L74.9765 91.275L64.9588 79.9L44.4062 101.658C43.7948 102.242 42.3839 102.3 41.7725 101.367C41.1141 100.492 41.4903 99.2083 42.0547 98.3917L60.3968 74.7083L41.3022 53.0083C40.4556 52.0167 39.6091 50.0333 41.1611 48.1083C42.7131 46.1833 44.3122 47.1167 45.629 48.5167L74.9765 77.9167L104.371 48.5167C105.688 47.1167 107.287 46.1833 108.839 48.1083Z" fill="#AB9350"/>
</svg>
