<svg width="150" height="150" viewBox="0 0 150 150" fill="none" xmlns="http://www.w3.org/2000/svg">
<path d="M0 32.1429C0 23.618 3.38647 15.4424 9.41443 9.41443C15.4424 3.38647 23.618 0 32.1429 0H117.857C126.382 0 134.558 3.38647 140.586 9.41443C146.614 15.4424 150 23.618 150 32.1429V117.857C150 126.382 146.614 134.558 140.586 140.586C134.558 146.614 126.382 150 117.857 150H32.1429C23.618 150 15.4424 146.614 9.41443 140.586C3.38647 134.558 0 126.382 0 117.857V32.1429ZM32.1429 10.7143C26.4596 10.7143 21.0092 12.9719 16.9906 16.9906C12.9719 21.0092 10.7143 26.4596 10.7143 32.1429V117.857C10.7143 123.54 12.9719 128.991 16.9906 133.009C21.0092 137.028 26.4596 139.286 32.1429 139.286H117.857C123.54 139.286 128.991 137.028 133.009 133.009C137.028 128.991 139.286 123.54 139.286 117.857V32.1429C139.286 26.4596 137.028 21.0092 133.009 16.9906C128.991 12.9719 123.54 10.7143 117.857 10.7143H32.1429Z" fill="#AB9350"/>
<path d="M102.5 40H47.5C45.5109 40 43.6032 40.7902 42.1967 42.1967C40.7902 43.6032 40 45.5109 40 47.5V102.5C40 104.489 40.7902 106.397 42.1967 107.803C43.6032 109.21 45.5109 110 47.5 110H68.9453V86.2016H59.1016V75H68.9453V66.4625C68.9453 56.7516 74.7266 51.3875 83.5812 51.3875C87.8219 51.3875 92.2562 52.1438 92.2562 52.1438V61.675H87.3703C82.5562 61.675 81.0547 64.6625 81.0547 67.7266V75H91.8016L90.0828 86.2016H81.0547V110H102.5C104.489 110 106.397 109.21 107.803 107.803C109.21 106.397 110 104.489 110 102.5V47.5C110 45.5109 109.21 43.6032 107.803 42.1967C106.397 40.7902 104.489 40 102.5 40Z" fill="#AB9350"/>
</svg>
