<svg width="150" height="150" viewBox="0 0 150 150" fill="none" xmlns="http://www.w3.org/2000/svg">
<path d="M0 32.1429C0 23.618 3.38647 15.4424 9.41443 9.41443C15.4424 3.38647 23.618 0 32.1429 0H117.857C126.382 0 134.558 3.38647 140.586 9.41443C146.614 15.4424 150 23.618 150 32.1429V117.857C150 126.382 146.614 134.558 140.586 140.586C134.558 146.614 126.382 150 117.857 150H32.1429C23.618 150 15.4424 146.614 9.41443 140.586C3.38647 134.558 0 126.382 0 117.857V32.1429ZM32.1429 10.7143C26.4596 10.7143 21.0092 12.9719 16.9906 16.9906C12.9719 21.0092 10.7143 26.4596 10.7143 32.1429V117.857C10.7143 123.54 12.9719 128.991 16.9906 133.009C21.0092 137.028 26.4596 139.286 32.1429 139.286H117.857C123.54 139.286 128.991 137.028 133.009 133.009C137.028 128.991 139.286 123.54 139.286 117.857V32.1429C139.286 26.4596 137.028 21.0092 133.009 16.9906C128.991 12.9719 123.54 10.7143 117.857 10.7143H32.1429Z" fill="#AB9350"/>
<path d="M74.9982 61.6857C67.6271 61.6857 61.6845 67.6857 61.6845 75C61.6845 82.3143 67.6843 88.3143 74.9982 88.3143C82.3122 88.3143 88.3119 82.3143 88.3119 75C88.3119 67.6857 82.3122 61.6857 74.9982 61.6857ZM114.996 75C114.996 69.4571 114.996 64.0286 114.711 58.4857C114.425 52.0857 112.939 46.3714 108.254 41.7429C103.568 37.0571 97.9115 35.5714 91.5118 35.2857C85.9692 35 80.5408 35 74.9982 35C69.4556 35 64.0273 35 58.4847 35.2857C52.085 35.5714 46.3709 37.0571 41.7426 41.7429C37.0571 46.4286 35.5714 52.0857 35.2857 58.4857C35 64.0286 35 69.4571 35 75C35 80.5429 35 85.9714 35.2857 91.5143C35.5714 97.9143 37.0571 103.629 41.7426 108.257C46.4281 112.943 52.085 114.429 58.4847 114.714C64.0273 115 69.4556 115 74.9982 115C80.5408 115 85.9692 115 91.5118 114.714C97.9115 114.429 103.626 112.943 108.254 108.257C112.939 103.571 114.425 97.9143 114.711 91.5143C115.054 86.0286 114.996 80.5429 114.996 75ZM74.9982 95.5143C63.6273 95.5143 54.4848 86.3714 54.4848 75C54.4848 63.6286 63.6273 54.4857 74.9982 54.4857C86.3691 54.4857 95.5116 63.6286 95.5116 75C95.5116 86.3714 86.3691 95.5143 74.9982 95.5143ZM96.3687 58.4286C93.7402 58.4286 91.5689 56.3143 91.5689 53.6286C91.5689 50.9429 93.6831 48.8286 96.3687 48.8286C99.0543 48.8286 101.168 50.9429 101.168 53.6286C101.183 54.2545 101.069 54.8767 100.833 55.4567C100.597 56.0366 100.244 56.5619 99.7971 57C99.359 57.4473 98.8338 57.7998 98.2538 58.0357C97.6739 58.2716 97.0517 58.3859 96.4258 58.3714L96.3687 58.4286Z" fill="#AB9350"/>
</svg>
