<svg width="16" height="25" viewBox="0 0 16 25" fill="none" xmlns="http://www.w3.org/2000/svg">
<path d="M8 25C8 25 16 17.5 16 9.375C16 4.1975 12.4181 0 8 0C3.58187 0 0 4.1975 0 9.375C0 17.5 8 25 8 25Z" fill="#AB9350"/>
<path d="M8 10C8.39397 10 8.78407 9.9224 9.14805 9.77164C9.51203 9.62087 9.84274 9.3999 10.1213 9.12132C10.3999 8.84274 10.6209 8.51203 10.7716 8.14805C10.9224 7.78407 11 7.39397 11 7C11 6.60603 10.9224 6.21593 10.7716 5.85195C10.6209 5.48797 10.3999 5.15726 10.1213 4.87868C9.84274 4.6001 9.51203 4.37913 9.14805 4.22836C8.78407 4.0776 8.39397 4 8 4C7.20435 4 6.44129 4.31607 5.87868 4.87868C5.31607 5.44129 5 6.20435 5 7C5 7.79565 5.31607 8.55871 5.87868 9.12132C6.44129 9.68393 7.20435 10 8 10Z" fill="black"/>
</svg>
