<svg width="150" height="150" viewBox="0 0 150 150" fill="none" xmlns="http://www.w3.org/2000/svg">
<path d="M0 32.1429C0 23.618 3.38647 15.4424 9.41443 9.41443C15.4424 3.38647 23.618 0 32.1429 0H117.857C126.382 0 134.558 3.38647 140.586 9.41443C146.614 15.4424 150 23.618 150 32.1429V117.857C150 126.382 146.614 134.558 140.586 140.586C134.558 146.614 126.382 150 117.857 150H32.1429C23.618 150 15.4424 146.614 9.41443 140.586C3.38647 134.558 0 126.382 0 117.857V32.1429ZM32.1429 10.7143C26.4596 10.7143 21.0092 12.9719 16.9906 16.9906C12.9719 21.0092 10.7143 26.4596 10.7143 32.1429V117.857C10.7143 123.54 12.9719 128.991 16.9906 133.009C21.0092 137.028 26.4596 139.286 32.1429 139.286H117.857C123.54 139.286 128.991 137.028 133.009 133.009C137.028 128.991 139.286 123.54 139.286 117.857V32.1429C139.286 26.4596 137.028 21.0092 133.009 16.9906C128.991 12.9719 123.54 10.7143 117.857 10.7143H32.1429Z" fill="#AB9350"/>
<path d="M93.3269 82.9401C92.3322 82.4434 87.439 80.0501 86.528 79.7167C85.6136 79.3867 84.9505 79.2234 84.284 80.2167C83.6242 81.2067 81.7151 83.4367 81.1357 84.0967C80.5563 84.7601 79.9735 84.8401 78.9788 84.3467C77.9841 83.8467 74.7755 82.8034 70.9741 79.4301C68.0168 76.8034 66.0173 73.5601 65.4378 72.5667C64.8584 71.5767 65.3776 71.0401 65.8732 70.5467C66.322 70.1034 66.8713 69.3901 67.367 68.8134C67.866 68.2334 68.0301 67.8201 68.3651 67.1568C68.6966 66.4968 68.5325 65.9201 68.2813 65.4234C68.0301 64.9268 66.0407 60.0501 65.2134 58.0668C64.4029 56.1368 63.5824 56.4001 62.9728 56.3668C62.3368 56.3416 61.7003 56.3304 61.0637 56.3334C60.4006 56.3334 59.3221 56.5801 58.4111 57.5734C57.5002 58.5634 54.9279 60.9601 54.9279 65.8368C54.9279 70.7101 58.4949 75.4201 58.9906 76.0834C59.4896 76.7434 66.0106 86.75 75.9946 91.04C78.3692 92.06 80.2214 92.67 81.6682 93.1234C84.0529 93.88 86.2232 93.7734 87.9346 93.5167C89.8471 93.2334 93.8226 91.12 94.6532 88.8067C95.4838 86.4934 95.4838 84.5101 95.2326 84.0967C94.9848 83.6834 94.325 83.4367 93.3269 82.9401ZM75.1674 107.617H75.154C69.2251 107.617 63.4051 106.031 58.304 103.023L57.0949 102.31L44.5654 105.583L47.9079 93.4234L47.1209 92.1767C43.8066 86.9243 42.0533 80.8457 42.0635 74.6434C42.0669 56.4768 56.9207 41.6968 75.1808 41.6968C84.0227 41.6968 92.3355 45.1301 98.5852 51.3568C101.669 54.4122 104.113 58.0459 105.776 62.0476C107.439 66.0493 108.288 70.3395 108.275 74.6701C108.265 92.8367 93.414 107.617 75.1674 107.617ZM103.344 46.6268C99.6543 42.9299 95.2635 39.9986 90.4268 38.0028C85.59 36.007 80.4033 34.9864 75.1674 35.0001C53.2131 35.0001 35.345 52.7834 35.3349 74.6401C35.3349 81.6267 37.167 88.4467 40.6535 94.4567L35 115L56.1169 109.487C61.9566 112.653 68.5005 114.312 75.1506 114.313H75.1674C97.1182 114.313 114.99 96.53 115 74.6701C115.016 69.461 113.994 64.3004 111.994 59.4869C109.993 54.6733 107.053 50.3023 103.344 46.6268Z" fill="#AB9350"/>
</svg>
